<svg t="1601089338488" class="icon" viewBox="0 0 1024 1024" version="1.1" xmlns="http://www.w3.org/2000/svg" p-id="4988"
    width="25" height="20">
    <path
        d="M515.2 339c-44.8 0-81 36.3-81 81 0 44.8 36.3 81 81 81s81-36.3 81-81-36.3-81-81-81z m0-243.1c-179 0-324.1 145.1-324.1 324.1 0 135.5 270.2 540.5 324.1 540.2 53 0.3 324.1-406.5 324.1-540.2 0-179-145.1-324.1-324.1-324.1z m0 459.2c-74.6 0-135.1-60.5-135.1-135.1s60.5-135.1 135.1-135.1S650.3 345.4 650.3 420c-0.1 74.6-60.5 135.1-135.1 135.1z"
        p-id="4989" fill="#f10215"></path>
</svg>